<svg width="119" height="47" viewBox="0 0 119 47" fill="none" xmlns="http://www.w3.org/2000/svg">
<path d="M2.29541 18.6224C18.1934 6.49167 30.6794 -2.3944 50.7818 4.44275C60.3768 7.7062 66.215 15.6215 65.6994 26.0235C64.7611 44.9525 38.0873 30.272 46.0476 17.4225C60.6405 -6.13339 92.331 10.8415 104.333 27.662C107.83 32.5638 111.718 38.205 114.631 43.4117C117.158 47.9281 115.665 41.8229 115.418 39.8455C114.96 36.1822 115.548 32.7752 115.1 29.1943C114.317 22.9283 114.441 28.9615 114.957 31.808C116.436 39.9733 119.575 46.6912 108.892 43.3767C106.742 42.7097 95.4842 40.1801 96.8649 39.286C100.779 36.7512 104.054 31.7389 107.828 29.5964C112.995 26.6635 115.023 23.393 109.672 30.4366C107.927 32.7349 106.02 34.6135 104.214 36.7801C101.236 40.3506 105.992 36.3436 106.26 35.7723C107.038 34.1129 110.322 31.8953 107.667 35.0795C106.984 35.8992 103.745 38.7592 104.906 38.1872C108.574 36.3814 111.596 30.3423 111.503 33.5086C111.425 36.1695 110.137 37.2097 107.776 38.2048C106.972 38.5435 103.02 37.6859 104.34 37.0359" stroke="#009FE3" stroke-width="3" stroke-linecap="round"/>
</svg>
