<svg width="120" height="48" viewBox="0 0 120 48" fill="none" xmlns="http://www.w3.org/2000/svg">
<path d="M2.28825 29.2667C18.4459 41.5956 31.1358 50.6268 51.5664 43.678C61.3182 40.3612 67.2517 32.3167 66.7277 21.7448C65.7741 2.50664 38.6646 17.4269 46.7549 30.4862C61.5862 54.4268 93.7941 37.1748 105.992 20.0795C109.547 15.0976 113.497 9.36439 116.458 4.07261C119.027 -0.51747 117.509 5.68736 117.258 7.69705C116.793 11.4202 117.39 14.8828 116.935 18.5222C116.14 24.8905 116.265 18.7589 116.79 15.8659C118.293 7.56724 121.483 0.739563 110.626 4.10816C108.441 4.78606 96.9989 7.35702 98.4021 8.2657C102.38 10.8419 105.709 15.936 109.545 18.1136C114.796 21.0944 116.856 24.4183 111.419 17.2596C109.645 14.9238 107.707 13.0145 105.871 10.8125C102.845 7.18373 107.679 11.2562 107.951 11.8368C108.742 13.5233 112.079 15.7771 109.381 12.541C108.686 11.7078 105.394 8.80117 106.575 9.38244C110.302 11.2178 113.374 17.3555 113.279 14.1374C113.2 11.4331 111.891 10.3759 109.491 9.36462C108.674 9.02039 104.657 9.89193 105.999 10.5525" stroke="#009FE3" stroke-width="3" stroke-linecap="round"/>
</svg>
