<svg width="56" height="57" viewBox="0 0 56 57" fill="none" xmlns="http://www.w3.org/2000/svg">
<circle cx="28" cy="28.1348" r="27" stroke="#145841" stroke-width="2"/>
<path d="M26.9375 23.2285L27.625 22.541C27.9375 22.2598 28.4062 22.2598 28.6875 22.541L34.7812 28.6035C35.0625 28.916 35.0625 29.3848 34.7812 29.666L28.6875 35.7598C28.4062 36.041 27.9375 36.041 27.625 35.7598L26.9375 35.0723C26.6562 34.7598 26.6562 34.291 26.9375 33.9785L30.7188 30.3848H21.75C21.3125 30.3848 21 30.0723 21 29.6348V28.6348C21 28.2285 21.3125 27.8848 21.75 27.8848H30.7188L26.9375 24.3223C26.6562 24.0098 26.625 23.541 26.9375 23.2285Z" fill="#145841"/>
</svg>
