<svg width="56" height="57" viewBox="0 0 56 57" fill="none" xmlns="http://www.w3.org/2000/svg">
<rect x="1" y="1.13477" width="54" height="54" rx="27" stroke="#145841" stroke-width="2"/>
<path d="M29.0312 35.0723L28.3438 35.7598C28.0312 36.041 27.5625 36.041 27.2812 35.7598L21.2188 29.666C20.9062 29.3848 20.9062 28.916 21.2188 28.6348L27.2812 22.541C27.5625 22.2598 28.0625 22.2598 28.3438 22.541L29.0312 23.2285C29.3438 23.541 29.3125 24.0098 29.0312 24.3223L25.25 27.8848H34.25C34.6562 27.8848 35 28.2285 35 28.6348V29.6348C35 30.0723 34.6562 30.3848 34.25 30.3848H25.25L29.0312 33.9785C29.3125 34.291 29.3438 34.7598 29.0312 35.0723Z" fill="#145841"/>
</svg>
