<svg width="47" height="36" viewBox="0 0 47 36" fill="none" xmlns="http://www.w3.org/2000/svg">
<path d="M0.012207 35.8008V25.4019C0.012207 22.4491 0.592039 19.4321 1.7517 16.351C2.91137 13.2698 4.44148 10.3652 6.34204 7.63709C8.2426 4.90898 10.3042 2.63021 12.5269 0.800781L21.6109 6.14466C19.807 8.96905 18.3252 11.9218 17.1656 15.003C16.0381 18.0841 15.4744 21.5183 15.4744 25.3056V35.8008H0.012207ZM24.4135 35.8008V25.4019C24.4135 22.4491 24.9933 19.4321 26.153 16.351C27.3126 13.2698 28.8427 10.3652 30.7433 7.63709C32.6439 4.90898 34.7055 2.63021 36.9282 0.800781L46.0122 6.14466C44.2083 8.96905 42.7265 11.9218 41.5668 15.003C40.4394 18.0841 39.8757 21.5183 39.8757 25.3056V35.8008H24.4135Z" fill="#0FA4E4"/>
</svg>
