<svg width="20" height="21" viewBox="0 0 20 21" fill="none" xmlns="http://www.w3.org/2000/svg">
<path d="M18.0203 14.1764C17.8818 15.2294 17.3646 16.196 16.5654 16.8957C15.7663 17.5953 14.7398 17.9801 13.6777 17.9782C7.5072 17.9782 2.48688 12.9578 2.48688 6.78736C2.48498 5.72524 2.86977 4.69874 3.56939 3.89959C4.269 3.10044 5.2356 2.58328 6.28864 2.44472C6.55493 2.4122 6.8246 2.46668 7.05738 2.60002C7.29016 2.73336 7.47358 2.9384 7.58025 3.18455L9.22156 6.84876V6.85808C9.30323 7.0465 9.33696 7.25222 9.31974 7.45685C9.30251 7.66148 9.23488 7.85866 9.12287 8.03078C9.10888 8.05177 9.09411 8.0712 9.07857 8.09062L7.46057 10.0086C8.04264 11.1914 9.27985 12.4177 10.4782 13.0014L12.3698 11.3919C12.3883 11.3763 12.4078 11.3618 12.428 11.3484C12.6 11.2337 12.7979 11.1637 13.0037 11.1447C13.2096 11.1257 13.4169 11.1583 13.607 11.2396L13.6171 11.2443L17.2782 12.8848C17.5247 12.9911 17.7303 13.1743 17.8641 13.4072C17.9978 13.64 18.0527 13.9098 18.0203 14.1764Z" fill="#2D2D2D"/>
</svg>
