<svg width="20" height="21" viewBox="0 0 20 21" fill="none" xmlns="http://www.w3.org/2000/svg">
<path d="M16.8917 4.30078H3.21402C2.88425 4.30078 2.56798 4.43178 2.33479 4.66497C2.10161 4.89816 1.9706 5.21443 1.9706 5.5442V17.9784C1.96917 18.2155 2.03625 18.448 2.16377 18.6479C2.29129 18.8478 2.47384 19.0066 2.68946 19.1053C2.85377 19.1818 3.03278 19.2216 3.21402 19.2218C3.50592 19.2211 3.78813 19.1171 4.01059 18.9281L4.01759 18.9226L6.55572 16.735H16.8917C17.2214 16.735 17.5377 16.604 17.7709 16.3708C18.0041 16.1376 18.1351 15.8213 18.1351 15.4916V5.5442C18.1351 5.21443 18.0041 4.89816 17.7709 4.66497C17.5377 4.43178 17.2214 4.30078 16.8917 4.30078ZM12.5397 12.383H7.566C7.40111 12.383 7.24298 12.3175 7.12638 12.2009C7.00979 12.0843 6.94429 11.9262 6.94429 11.7613C6.94429 11.5964 7.00979 11.4383 7.12638 11.3217C7.24298 11.2051 7.40111 11.1396 7.566 11.1396H12.5397C12.7046 11.1396 12.8627 11.2051 12.9793 11.3217C13.0959 11.4383 13.1614 11.5964 13.1614 11.7613C13.1614 11.9262 13.0959 12.0843 12.9793 12.2009C12.8627 12.3175 12.7046 12.383 12.5397 12.383ZM12.5397 9.89618H7.566C7.40111 9.89618 7.24298 9.83067 7.12638 9.71408C7.00979 9.59749 6.94429 9.43935 6.94429 9.27447C6.94429 9.10958 7.00979 8.95144 7.12638 8.83485C7.24298 8.71826 7.40111 8.65275 7.566 8.65275H12.5397C12.7046 8.65275 12.8627 8.71826 12.9793 8.83485C13.0959 8.95144 13.1614 9.10958 13.1614 9.27447C13.1614 9.43935 13.0959 9.59749 12.9793 9.71408C12.8627 9.83067 12.7046 9.89618 12.5397 9.89618Z" fill="#2D2D2D"/>
</svg>
