<svg width="185" height="37" viewBox="0 0 185 37" fill="none" xmlns="http://www.w3.org/2000/svg">
<path d="M18.9004 0L23.0314 12.7141H36.3998L25.5846 20.5718L29.7156 33.2859L18.9004 25.4282L8.08512 33.2859L12.2162 20.5718L1.40093 12.7141H14.7693L18.9004 0Z" fill="#F4B212"/>
<path d="M55.7011 0L59.8322 12.7141H73.2006L62.3853 20.5718L66.5164 33.2859L55.7011 25.4282L44.8859 33.2859L49.017 20.5718L38.2017 12.7141H51.5701L55.7011 0Z" fill="#F4B212"/>
<path d="M92.5 0L96.631 12.7141H109.999L99.1842 20.5718L103.315 33.2859L92.5 25.4282L81.6847 33.2859L85.8158 20.5718L75.0005 12.7141H88.3689L92.5 0Z" fill="#F4B212"/>
<path d="M129.301 0L133.432 12.7141H146.8L135.985 20.5718L140.116 33.2859L129.301 25.4282L118.486 33.2859L122.617 20.5718L111.801 12.7141H125.17L129.301 0Z" fill="#F4B212"/>
<path d="M166.1 0L170.231 12.7141H183.599L172.784 20.5718L176.915 33.2859L166.1 25.4282L155.284 33.2859L159.415 20.5718L148.6 12.7141H161.969L166.1 0Z" fill="#F4B212"/>
</svg>
