<svg width="20" height="21" viewBox="0 0 20 21" fill="none" xmlns="http://www.w3.org/2000/svg">
<path d="M17.4079 4.30078H2.48682C2.32193 4.30078 2.1638 4.36628 2.04721 4.48288C1.93061 4.59947 1.86511 4.7576 1.86511 4.92249V15.4916C1.86511 15.8213 1.99612 16.1376 2.2293 16.3708C2.46249 16.604 2.77876 16.735 3.10853 16.735H16.7862C17.1159 16.735 17.4322 16.604 17.6654 16.3708C17.8986 16.1376 18.0296 15.8213 18.0296 15.4916V4.92249C18.0296 4.7576 17.9641 4.59947 17.8475 4.48288C17.7309 4.36628 17.5728 4.30078 17.4079 4.30078ZM16.7862 15.4916H3.10853V6.33611L9.52692 12.2198C9.64162 12.3251 9.79165 12.3835 9.94735 12.3835C10.103 12.3835 10.2531 12.3251 10.3678 12.2198L16.7862 6.33611V15.4916Z" fill="#2D2D2D"/>
</svg>
