<svg width="20" height="20" viewBox="0 0 20 20" fill="none" xmlns="http://www.w3.org/2000/svg">
    <path fill-rule="evenodd" clip-rule="evenodd" d="M5.67 0H14.34C17.73 0 20 2.35734 20 5.86363V13.9558C20 17.4522 17.73 19.8096 14.34 19.8096H5.67C2.28 19.8096 0 17.4522 0 13.9558V5.86363C0 2.35734 2.28 0 5.67 0ZM5.52031 11.0938C4.86031 11.0938 4.32031 10.5583 4.32031 9.9038C4.32031 9.24933 4.86031 8.71484 5.52031 8.71484C6.18031 8.71484 6.72031 9.24933 6.72031 9.9038C6.72031 10.5583 6.18031 11.0938 5.52031 11.0938ZM8.7998 9.9038C8.7998 10.5583 9.33981 11.0938 9.99982 11.0938C10.6598 11.0938 11.1998 10.5583 11.1998 9.9038C11.1998 9.24933 10.6598 8.71484 9.99982 8.71484C9.33981 8.71484 8.7998 9.24933 8.7998 9.9038ZM13.2803 9.9038C13.2803 10.5583 13.8203 11.0938 14.4803 11.0938C15.1403 11.0938 15.6703 10.5583 15.6703 9.9038C15.6703 9.24933 15.1403 8.71484 14.4803 8.71484C13.8203 8.71484 13.2803 9.24933 13.2803 9.9038Z" fill="#C49F43"/>
    </svg>