<svg width="20" height="21" viewBox="0 0 20 21" fill="none" xmlns="http://www.w3.org/2000/svg">
<g clip-path="url(#clip0_2594_1708)">
<path d="M18.6513 8.65204H17.812L15.6531 3.79492C15.5554 3.57517 15.3961 3.38846 15.1944 3.25743C14.9928 3.12639 14.7574 3.05664 14.5169 3.05664H5.37779C5.1373 3.05664 4.90196 3.12639 4.7003 3.25743C4.49865 3.38846 4.33931 3.57517 4.24161 3.79492L2.08272 8.65204H1.24341C1.07853 8.65204 0.920392 8.71754 0.803799 8.83413C0.687206 8.95072 0.621704 9.10886 0.621704 9.27375C0.621704 9.43863 0.687206 9.59677 0.803799 9.71336C0.920392 9.82996 1.07853 9.89546 1.24341 9.89546H1.86513V16.1126C1.86513 16.4423 1.99613 16.7586 2.22931 16.9918C2.4625 17.225 2.77877 17.356 3.10855 17.356H4.97368C5.30345 17.356 5.61972 17.225 5.85291 16.9918C6.0861 16.7586 6.2171 16.4423 6.2171 16.1126V15.4909H13.6776V16.1126C13.6776 16.4423 13.8086 16.7586 14.0418 16.9918C14.275 17.225 14.5913 17.356 14.921 17.356H16.7862C17.116 17.356 17.4322 17.225 17.6654 16.9918C17.8986 16.7586 18.0296 16.4423 18.0296 16.1126V9.89546H18.6513C18.8162 9.89546 18.9743 9.82996 19.0909 9.71336C19.2075 9.59677 19.273 9.43863 19.273 9.27375C19.273 9.10886 19.2075 8.95072 19.0909 8.83413C18.9743 8.71754 18.8162 8.65204 18.6513 8.65204ZM6.2171 12.3823H4.35197C4.18708 12.3823 4.02894 12.3168 3.91235 12.2002C3.79576 12.0836 3.73026 11.9255 3.73026 11.7606C3.73026 11.5957 3.79576 11.4376 3.91235 11.321C4.02894 11.2044 4.18708 11.1389 4.35197 11.1389H6.2171C6.38199 11.1389 6.54012 11.2044 6.65671 11.321C6.77331 11.4376 6.83881 11.5957 6.83881 11.7606C6.83881 11.9255 6.77331 12.0836 6.65671 12.2002C6.54012 12.3168 6.38199 12.3823 6.2171 12.3823ZM15.5428 12.3823H13.6776C13.5127 12.3823 13.3546 12.3168 13.238 12.2002C13.1214 12.0836 13.0559 11.9255 13.0559 11.7606C13.0559 11.5957 13.1214 11.4376 13.238 11.321C13.3546 11.2044 13.5127 11.1389 13.6776 11.1389H15.5428C15.7076 11.1389 15.8658 11.2044 15.9824 11.321C16.099 11.4376 16.1645 11.5957 16.1645 11.7606C16.1645 11.9255 16.099 12.0836 15.9824 12.2002C15.8658 12.3168 15.7076 12.3823 15.5428 12.3823ZM3.44349 8.65204L5.37779 4.30006H14.5169L16.4512 8.65204H3.44349Z" fill="#2D2D2D"/>
</g>
<defs>
<clipPath id="clip0_2594_1708">
<rect width="19.8947" height="19.8947" fill="white" transform="translate(0 0.570312)"/>
</clipPath>
</defs>
</svg>
