<svg width="18" height="17" viewBox="0 0 18 17" fill="none" xmlns="http://www.w3.org/2000/svg">
    <path d="M18 11.5369C18 14.0242 15.984 16.0389 13.473 16.0479H13.464H4.545C2.043 16.0479 0 14.042 0 11.5548V11.5459C0 11.5459 0.0054 7.60014 0.0126 5.61569C0.0135 5.24305 0.4455 5.03444 0.7398 5.26623C2.8782 6.94668 6.7023 10.0107 6.75 10.0508C7.389 10.5581 8.199 10.8443 9.027 10.8443C9.855 10.8443 10.665 10.5581 11.304 10.041C11.3517 10.0098 15.0903 7.03761 17.2611 5.32952C17.5563 5.09685 17.9901 5.30545 17.991 5.6772C18 7.64649 18 11.5369 18 11.5369Z" fill="#C49F43"/>
    <path d="M17.5288 2.38385C16.7494 0.928935 15.2158 0 13.5274 0H4.54539C2.85699 0 1.32338 0.928935 0.543984 2.38385C0.369383 2.70924 0.452184 3.11487 0.742884 3.34488L7.42539 8.63945C7.89339 9.01387 8.46039 9.2002 9.02739 9.2002C9.03099 9.2002 9.03369 9.2002 9.03639 9.2002C9.03909 9.2002 9.04269 9.2002 9.04539 9.2002C9.61239 9.2002 10.1794 9.01387 10.6474 8.63945L17.3299 3.34488C17.6206 3.11487 17.7034 2.70924 17.5288 2.38385Z" fill="#C49F43"/>
    </svg>