<svg width="20" height="21" viewBox="0 0 20 21" fill="none" xmlns="http://www.w3.org/2000/svg">
<path d="M17.9464 17.6676C17.8918 17.7621 17.8133 17.8406 17.7188 17.8952C17.6242 17.9498 17.517 17.9785 17.4078 17.9785H2.4868C2.37772 17.9784 2.27059 17.9496 2.17616 17.8949C2.08174 17.8403 2.00335 17.7618 1.94886 17.6673C1.89437 17.5728 1.86569 17.4657 1.86572 17.3566C1.86575 17.2475 1.89448 17.1404 1.94902 17.0459C3.1326 14.9997 4.95654 13.5325 7.08512 12.8369C6.03223 12.2101 5.2142 11.255 4.75665 10.1183C4.2991 8.98163 4.22734 7.72615 4.55238 6.54471C4.87742 5.36327 5.5813 4.3212 6.55591 3.57851C7.53052 2.83582 8.72198 2.43359 9.94732 2.43359C11.1727 2.43359 12.3641 2.83582 13.3387 3.57851C14.3133 4.3212 15.0172 5.36327 15.3423 6.54471C15.6673 7.72615 15.5955 8.98163 15.138 10.1183C14.6804 11.255 13.8624 12.2101 12.8095 12.8369C14.9381 13.5325 16.762 14.9997 17.9456 17.0459C18.0003 17.1403 18.0292 17.2475 18.0293 17.3567C18.0294 17.4658 18.0009 17.573 17.9464 17.6676Z" fill="#2D2D2D"/>
</svg>
