<?xml version="1.0" encoding="utf-8"?>
<!-- Generator: Adobe Illustrator 23.0.3, SVG Export Plug-In . SVG Version: 6.00 Build 0)  -->
<svg version="1.1" id="Layer_1" xmlns="http://www.w3.org/2000/svg" xmlns:xlink="http://www.w3.org/1999/xlink" x="0px" y="0px"
	 viewBox="0 0 1624.7 219.7" width="1624" height="219" style="enable-background:new 0 0 1624.7 219.7;" xml:space="preserve">
<style type="text/css">
	.st0{fill:#A2DE00;}
</style>
<title>Artboard 19 copy</title>
<g>
	<g>
		<path class="st0" d="M119.3,6.9h61.6c0,0-81.8,116.6-82.1,116.6l86,90.9h-72l-57.4-62.6v62.5H0V6.9h55.5v94.6L119.3,6.9z"/>
		<path class="st0" d="M199.8,6.9h55.5v207.5h-55.5V6.9z"/>
		<path class="st0" d="M338.7,110.9v103.4h-52.2V4.1c0-1.8,0.9-3.4,4.3-0.6l130.3,107.4V6.9h52.2v210.5c0,2.4-0.9,3.4-4.3,0.6
			L338.7,110.9z"/>
		<path class="st0" d="M605,144.5v-42.7h98c0,1.2,0.3,4.6,0.3,8.9c0,70.8-40.6,106.8-101.9,106.8c-58.9,0-108.3-44.2-108.3-106.8
			S541.9,4.4,600.5,4.4c40,0,71.7,17.7,87.9,46.7L644.2,78c-7.9-14-21.4-25.3-44.5-25.3c-33,0-49.7,25.3-49.7,58
			s17.7,58.6,51.9,58.6c25.3,0,36.9-9.2,43.3-24.7L605,144.5z"/>
		<path class="st0" d="M901.2,4.9h62.1c0,0-82.4,117.4-82.7,117.4l86.7,91.6h-72.6l-57.8-63v63H781V4.9h56v95.3L901.2,4.9z"/>
		<path class="st0" d="M947.9,109.4c0-63,52-107,112.2-107c60.2,0,112.2,44,112.2,107s-52,107.3-112.2,107.3
			C999.9,216.7,947.9,172.4,947.9,109.4z M1115.2,109.4c0-32.9-20-58.4-55-58.4s-55,25.5-55,58.4s20,58.7,55,58.7
			S1115.2,142.3,1115.2,109.4z"/>
		<path class="st0" d="M1244.9,109.8v104.2h-52.6V2.1c0-1.9,0.9-3.4,4.3-0.6l131.3,108.3V4.9h52.6V217c0,2.5-0.9,3.4-4.3,0.6
			L1244.9,109.8z"/>
		<path class="st0" d="M1513.3,143.5v-43h98.7c0,1.2,0.3,4.6,0.3,8.9c0,71.3-40.9,107.6-102.7,107.6c-59.3,0-109.1-44.6-109.1-107.6
			s49.2-107,108.2-107c40.3,0,72.2,17.8,88.6,47l-44.6,27.1c-8-14.1-21.5-25.5-44.9-25.5c-33.2,0-50.1,25.5-50.1,58.4
			s17.8,59,52.3,59c25.5,0,37.2-9.2,43.7-24.9L1513.3,143.5z"/>
	</g>
	<g id="Dfeiu3.tif">
		<g>
			<path class="st0" d="M1607.9,5c0.4,0,0.9,0,1.3,0c0,0,0.1,0,0.1,0c1.5,0.1,2.9,0.3,4.3,0.8c4.6,1.6,7.9,4.6,9.8,9.1
				c0.7,1.5,1.1,3.1,1.2,4.8c0,0.3,0.1,0.6,0.1,0.9c0,0.4,0,0.8,0,1.3c0,0.1,0,0.1,0,0.2c-0.1,1.4-0.3,2.7-0.7,4
				c-1.5,4.6-4.4,7.9-8.8,9.9c-1.7,0.8-3.5,1.2-5.4,1.4c-0.2,0-0.4,0-0.6,0c-0.4,0-0.8,0-1.3,0c0,0-0.1,0-0.1,0
				c-0.4,0-0.7,0-1.1-0.1c-1.6-0.2-3.1-0.6-4.5-1.2c-2.6-1.1-4.8-2.8-6.5-5.1c-1.9-2.5-3-5.4-3.3-8.6c0-0.2,0-0.4-0.1-0.6
				c0-0.4,0-0.9,0-1.3c0-0.1,0-0.1,0-0.2c0.1-1.2,0.3-2.4,0.6-3.6c1.5-5.1,5.2-9.1,10.2-10.8c1.2-0.4,2.5-0.7,3.8-0.8
				C1607.3,5,1607.6,5,1607.9,5z M1595.6,21.2c0,7.1,5.8,12.9,12.9,12.9c7.1,0,12.9-5.8,12.9-12.9c0-7.1-5.8-12.9-12.9-12.9
				C1601.4,8.3,1595.6,14.1,1595.6,21.2z"/>
			<path class="st0" d="M1605.8,22.9c0,2.1,0,4.2,0,6.4c-1.5,0-2.9,0-4.4,0c0-5.6,0-11.3,0-16.9c0,0,0.1,0,0.1,0c2.3,0,4.6,0,6.9,0
				c1.1,0,2.2,0.1,3.3,0.5c0.7,0.2,1.3,0.6,1.8,1.1c0.5,0.6,0.8,1.3,0.9,2.1c0.1,0.9,0.1,1.7-0.1,2.6c-0.4,1.2-1.2,2-2.3,2.5
				c-0.2,0.1-0.5,0.2-0.7,0.3c0.1,0,0.2,0.1,0.3,0.1c0.7,0.2,1.3,0.7,1.7,1.3c0.4,0.5,0.7,1.1,1,1.6c0.8,1.6,1.6,3.2,2.4,4.7
				c0,0,0,0.1,0.1,0.1c-0.1,0-0.1,0-0.1,0c-1.5,0-2.9,0-4.4,0c-0.1,0-0.2,0-0.2-0.1c-0.7-1.4-1.4-2.9-2.1-4.3
				c-0.2-0.4-0.5-0.8-0.7-1.1c-0.4-0.5-1-0.8-1.6-0.8C1607,22.9,1606.4,22.9,1605.8,22.9C1605.8,22.9,1605.8,22.9,1605.8,22.9z
				 M1605.8,19.9c0.8,0,1.5,0,2.2,0c0.3,0,0.5-0.1,0.8-0.1c0.6-0.2,1.1-0.6,1.3-1.2c0.1-0.5,0.1-1.1,0-1.6c-0.2-0.6-0.5-1-1.1-1.2
				c-0.3-0.1-0.5-0.1-0.8-0.2c-0.8,0-1.6,0-2.4,0c0,0,0,0-0.1,0C1605.8,17,1605.8,18.4,1605.8,19.9z"/>
		</g>
	</g>
</g>
</svg>
