<svg width="14" height="18" viewBox="0 0 14 18" fill="none" xmlns="http://www.w3.org/2000/svg">
<path fill-rule="evenodd" clip-rule="evenodd" d="M6.78064 16.965C6.87173 17.0126 6.9736 17.0368 7.07546 17.0359C7.17732 17.0351 7.27835 17.0101 7.37028 16.9617L10.3052 15.3928C11.1375 14.9492 11.7892 14.4531 12.2977 13.8755C13.4033 12.6171 14.007 11.0111 13.9962 9.35507L13.9615 3.89247C13.9582 3.26328 13.5449 2.70186 12.9337 2.49778L7.47379 0.665886C7.14502 0.554569 6.78478 0.556989 6.4618 0.671532L1.02256 2.56876C0.414705 2.78091 0.00891459 3.34637 0.0122272 3.97636L0.0470092 9.43493C0.057775 11.0934 0.682195 12.6922 1.80598 13.9376C2.31943 14.5071 2.97698 14.9959 3.81837 15.4323L6.78064 16.965ZM6.00353 10.5452C6.12609 10.663 6.2851 10.7211 6.4441 10.7195C6.6031 10.7187 6.76128 10.659 6.88219 10.5396L10.0896 7.37755C10.3306 7.13959 10.3281 6.75724 10.0846 6.5225C9.84031 6.28777 9.44694 6.28938 9.20596 6.52734L6.43499 9.25865L5.30043 8.16806C5.05613 7.93333 4.66359 7.93575 4.42177 8.17371C4.18079 8.41167 4.18327 8.79402 4.42757 9.02875L6.00353 10.5452Z" fill="#F4B212"/>
</svg>
